Coordinates
version=1
nRows=7
nColumns=40
inDegrees=yes

Units are S.I. units (second, meters, Newtons, ...)
Angles are in degrees.

endheader
time	pelvis_tilt	pelvis_list	pelvis_rotation	pelvis_tx	pelvis_ty	pelvis_tz	hip_flexion_r	hip_adduction_r	hip_rotation_r	knee_angle_r	knee_angle_r_beta	ankle_angle_r	subtalar_angle_r	mtp_angle_r	hip_flexion_l	hip_adduction_l	hip_rotation_l	knee_angle_l	knee_angle_l_beta	ankle_angle_l	subtalar_angle_l	mtp_angle_l	lumbar_extension	lumbar_bending	lumbar_rotation	arm_flex_r	arm_add_r	arm_rot_r	elbow_flex_r	pro_sup_r	wrist_flex_r	wrist_dev_r	arm_flex_l	arm_add_l	arm_rot_l	elbow_flex_l	pro_sup_l	wrist_flex_l	wrist_dev_l
      0.95000000	     -0.70947117	      0.88423673	      7.84497329	     -0.32502497	      0.93133761	     -1.10218851	     25.88658662	     -8.99936039	    -24.43935002	    -16.15418869	     -0.28194378	      0.95702508	      2.69724563	      3.12711658	    -12.92484466	      2.45457923	      9.57090882	    -15.20941360	     -0.26545434	      6.57542998	     -5.96989357	    -15.74822686	     -5.92048056	      0.51494143	    -10.65714445	     -4.12113358	    -10.01592601	    -25.31439114	     18.06159391	     89.95437384	      0.00000000	      0.00000000	     15.65074078	     15.91487889	      5.88404895	     31.76413676	     89.95437384	      0.00000000	      0.00000000
      0.96000000	      0.29702820	     -0.17693454	      8.24432965	     -0.31306946	      0.93233938	     -1.09990690	     24.23339485	     -7.50637506	    -25.10194036	    -16.04013104	     -0.27995310	     -1.07678209	      0.18263937	      3.38612361	    -14.28438251	      4.36744394	     10.14804212	    -15.74478460	     -0.27479833	      5.63303054	     -7.12157705	    -16.41262239	     -6.75826391	      1.88330682	    -10.76630992	     -4.13445772	    -10.01792907	    -26.79142322	     17.29273572	     89.95437384	      0.00000000	      0.00000000	     15.46831014	     15.67311451	      5.92950861	     32.65178777	     89.95437384	      0.00000000	      0.00000000
      0.97000000	      0.25732411	     -0.30053158	      8.15606862	     -0.30229772	      0.93201357	     -1.09767504	     24.35836438	     -7.40516271	    -24.96991318	    -16.75421521	     -0.29241622	     -2.42569153	     -0.06633112	      3.44776759	    -14.52010264	      4.77907090	     10.03217380	    -16.43606439	     -0.28686344	      5.09229205	     -6.93584680	    -16.09124707	     -6.62094102	      2.05523604	    -10.56879901	     -4.44931803	    -10.08229411	    -26.67214375	     16.95191552	     89.95437384	      0.00000000	      0.00000000	     15.27299527	     15.48112729	      6.00894294	     33.25014269	     89.95437384	      0.00000000	      0.00000000
      0.98000000	      0.47640382	     -0.87159018	      8.21262262	     -0.29096272	      0.93237594	     -1.09523782	     23.98209498	     -6.79475408	    -24.77017606	    -17.13380083	     -0.29904124	     -4.08643809	     -0.20679593	      3.17788891	    -14.87917365	      5.89112859	     10.54564092	    -17.33774934	     -0.30260081	      4.26180353	     -7.18626765	    -16.06543756	     -6.65188533	      2.75634141	    -10.50553326	     -4.60020500	    -10.12252715	    -27.08865281	     16.37585606	     89.95437384	      0.00000000	      0.00000000	     14.90841971	     15.14708801	      6.46674368	     33.92722802	     89.95437384	      0.00000000	      0.00000000
      0.99000000	      0.46776942	     -1.12112454	      8.01297862	     -0.27961186	      0.93245635	     -1.09264442	     24.25231763	     -6.58635545	    -24.12468840	    -18.56356581	     -0.32399534	     -5.29323491	     -0.18013094	      3.08101133	    -15.03353907	      6.45460808	     10.74033702	    -18.28976930	     -0.31921669	      3.57919213	     -6.82605183	    -15.61520063	     -6.47056677	      3.05260812	    -10.17677211	     -4.99041848	    -10.18232558	    -26.99740236	     16.20146452	     89.95437384	      0.00000000	      0.00000000	     14.52671226	     14.88306255	      6.54869689	     34.49864756	     89.95437384	      0.00000000	      0.00000000
      1.00000000	      0.42105255	     -1.28706245	      7.85059616	     -0.26840171	      0.93278666	     -1.08999890	     24.47804340	     -6.35126976	    -23.12082691	    -19.99061003	     -0.34890196	     -5.86143004	     -0.11959749	      2.94648235	    -15.01087086	      6.89589451	     10.53498022	    -19.44165742	     -0.33932093	      2.69623094	     -6.31161205	    -15.01266371	     -6.30616443	      3.23777408	     -9.85180527	     -5.39328006	    -10.19550242	    -26.76613164	     16.08359806	     89.95437384	      0.00000000	      0.00000000	     14.10832821	     14.61394679	      6.69775322	     35.10557974	     89.95437384	      0.00000000	      0.00000000
      1.01000000	      0.40350316	     -1.47944242	      7.53151708	     -0.25667267	      0.93324543	     -1.08722840	     24.68151819	     -6.01697530	    -22.64104053	    -21.48088172	     -0.37491211	     -5.95127940	     -0.70959693	      2.68852479	    -14.93111302	      7.41265903	     11.17751415	    -20.80219397	     -0.36306678	      1.30145136	     -5.56872177	    -14.35837493	     -6.08625569	      3.43617837	     -9.49029926	     -5.49459762	    -10.30930155	    -26.49987572	     15.44681310	     89.95437384	      0.00000000	      0.00000000	     13.43833676	     14.33823513	      6.94606868	     35.80805230	     89.95437384	      0.00000000	      0.00000000
